<?xml version="1.0" encoding="utf-8"?>
<!-- ClinicalSim hero lockup: electric-green soundwave + dark-blue wordmark.
     Vector letterforms (font-independent), recolored from brand "Logo Version 1". -->
<svg xmlns="http://www.w3.org/2000/svg" viewBox="850 1490 4410 680" role="img" aria-label="ClinicalSim">
  <!-- Soundwave bars (electric green) -->
  <g fill="#79F0B8">
    <path d="M1184.3,2149.4v-618.5h74.8v618.5H1184.3z"/>
    <path d="M1339.5,1995.7v-311h74.8v311H1339.5z"/>
    <path d="M1029,1995.7v-311h74.8v311H1029z"/>
    <path d="M873.7,2071.9v-463.4h74.8v463.4H873.7z"/>
  </g>
  <!-- Wordmark "ClinicalSim" (dark blue) -->
  <g fill="#061729">
    <path d="M2079.1,2142.2v-618.5h61.1v618.5H2079.1z"/>
    <path d="M3831.5,2142.2v-618.5h61.1v618.5H3831.5z"/>
    <rect x="2234.4" y="1704.1" width="61.1" height="438.1"/>
    <rect x="2234.4" y="1523.7" width="61.1" height="106.4"/>
    <rect x="4470.2" y="1704.1" width="61.1" height="438.1"/>
    <rect x="4470.2" y="1523.7" width="61.1" height="106.4"/>
    <rect x="2812.3" y="1704.1" width="61.1" height="438.1"/>
    <rect x="2812.3" y="1523.7" width="61.1" height="106.4"/>
    <path d="M2383.3,2142.2v-438.1h58.5v69c5.9-10.1,12.7-19.4,20.4-27.8c0,0,20.8-22.9,48-36.3
      c38.7-19.1,114.7-23.5,170.2,25.4c63.5,55.9,52.5,139.3,51.6,145.4v262.4h-61.1v-256.4c0.4-4.1,4.7-66-44.7-103.2
      c-2.1-1.6-43.9-32.1-92.7-19.5c-52.5,13.6-92.1,71.7-89.2,141.6v237.5H2383.3z"/>
    <path d="M5187.3,1734.3c-55.5-48.9-131.5-44.5-170.2-25.4c-27.2,13.5-48,36.3-48,36.3c-6.1,6.7-14.7,18.2-20.8,27.7
      c-1.1-1.9-2.2-3.9-3.4-5.8c-7.2-11.5-16.3-22.6-27.9-32.9c-8.5-7.5-17.5-13.7-26.7-18.9c-51.2-28.4-110.7-22.7-143.5-6.5
      c-27.2,13.5-48,36.3-48,36.3c-7.7,8.4-14.5,17.7-20.4,27.8v-69h-58.5v438.1h61.1v-237.5c-2.9-69.9,36.7-128,89.2-141.6
      c48.8-12.6,90.6,17.9,92.7,19.5c12,9.1,20.9,19.6,27.4,30.5c20.1,33.5,17.6,69.6,17.3,72.7v256.4h43.8h17.3v-262.5
      c0.3-1.8,1.4-10,1.3-22.1c-0.3-42.4,26.2-81.2,66.8-93.5c1.3-0.4,2.6-0.7,3.9-1.1c48.8-12.6,90.6,17.9,92.7,19.5
      c49.3,37.2,45,99.1,44.7,103.2v256.4h61.1v-262.5C5239.8,1873.6,5250.7,1790.2,5187.3,1734.3z"/>
    <path d="M3683.5,1931.6v54.7c-32.6,48.6-67.9,77.6-87.1,86.8c-24.3,11.7-46.6,13.1-46.6,13.1c-1.5,0.1-3.9,0.2-7.1,0.2
      c-16.2,0-46.9-3-71.3-23.1c-15.6-12.9-22.3-27.4-22.3-48.4c0-12.3,2.9-23.3,8.8-33.6c4.8-8.3,14.2-15.7,27.9-22.1
      c12.3-5.7,30.1-9.5,51.5-11.2c36.8-2.8,66.7-5.8,94.1-9.5L3683.5,1931.6 M3588.7,1691.1c-5.9,0-10.8,0.2-14.4,0.4
      c-97.9,4.7-155.7,86-163.9,97.9l43.2,33.5c7.7-10.5,51.8-68.5,120.6-72.2c3-0.2,7-0.4,11.7-0.4c16.7,0,42.7,2.7,64.6,20.1
      c4.7,3.7,16.6,13.5,24.8,30.9c5,10.6,7.5,23.3,7.5,41.8v27.5l-59.4,7.9c-30.1,4-60.4,6.8-90.7,9.1c-29,2.2-53.1,7.7-72.2,16.5
      c-25.5,11.8-43.9,27.4-55.1,46.9c-11.2,19.5-16.8,40.7-16.8,63.7c0,39,14.8,70.7,44.3,95.1c39.3,32.4,86.2,36.9,109.8,36.9
      c4.7,0,8.5-0.2,11.1-0.4c36.9-2.5,63-15.7,71.3-20.2c32.7-17.7,51.5-41.8,60.2-54.6v70.6h58.5v-280.5c0.9-9.4,6.3-81.7-47.8-131.7
      C3659,1695.7,3614.5,1691.1,3588.7,1691.1L3588.7,1691.1z"/>
    <path d="M3351.5,2037.3c-38.2,66.2-108.7,110.6-189.2,110.6c-121.3,0-219.6-100.6-219.6-224.8s98.3-224.8,219.6-224.8
      c78.3,0,147.1,42,185.9,105.1l-60.7,32.8c-26.6-44-72.7-73-125.2-73c-82.3,0-149.1,71.6-149.1,159.9
      c0,88.3,66.7,159.9,149.1,159.9c55,0,103-31.9,128.9-79.5L3351.5,2037.3z"/>
    <path d="M2027.8,1994.6c-51.7,91.7-147,153.2-256.1,153.2c-164.1,0-297.2-139.4-297.2-311.5s133.1-311.5,297.2-311.5
      c106,0,199,58.1,251.6,145.6l-66.8,36.9c-38-71.3-106.6-118.8-184.8-118.8c-119.5,0-216.4,110.9-216.4,247.7
      s96.9,247.7,216.4,247.7c81.5,0,152.5-51.6,189.4-127.7L2027.8,1994.6z"/>
    <path d="M4374.4,1876.8c-17-25-42.2-45.1-75.5-60.5c-21.8-9.9-59.7-21.5-113.7-35c-55.2-13.7-90.6-27.3-106.4-40.7
      c-15.8-13.4-23.7-32.2-23.7-56.6c0-26.2,10.8-47.6,32.3-64.2c21.5-16.5,52.8-24.8,93.7-24.8c40.3,0,71.6,9.4,93.9,28.3
      c20.9,17.7,33.6,44.2,38.1,79.7l66.5-33.7c-4.3-22.2-12-42.3-23.2-60.3c-16.8-27.1-40.5-47.8-71-62.3
      c-30.5-14.5-66-21.7-106.6-21.7c-59.1,0-106.1,15.5-141,46.3c-34.9,30.9-52.3,70.6-52.3,119.3c0,27.1,6.1,51.3,18.2,72.8
      c12.1,21.5,29.1,39.2,51,53.1c21.8,13.9,58.5,27.8,110.1,41.6c57.9,15.4,95.6,27.4,113,35.8c17.4,8.5,30.5,19.3,39.1,32.5
      c8.7,13.2,13,28.7,13,46.4c0,30.3-11.9,54.9-35.7,73.8c-23.8,19-57.2,28.4-100.3,28.4c-30,0-57-5.6-81-16.8
      c-24-11.2-42.4-26-55.3-44.5c-10.4-14.9-17.8-34.5-22.1-58.8l-65.9,33.4c8.5,41.7,27.7,76.2,57.6,103.5
      c40.2,36.6,94.1,54.9,161.7,54.9c43.4,0,80.4-7.4,111.2-22.1c30.8-14.8,55.1-36.3,73-64.5c17.9-28.2,26.8-59.6,26.8-94
      C4399.9,1931.6,4391.4,1901.8,4374.4,1876.8z"/>
  </g>
</svg>
